<?xml version="1.0" encoding="iso-8859-1"?>
<!-- Generator: Adobe Illustrator 21.0.2, SVG Export Plug-In . SVG Version: 6.00 Build 0)  -->
<svg version="1.1" id="Layer_1" xmlns="http://www.w3.org/2000/svg" xmlns:xlink="http://www.w3.org/1999/xlink" x="0px" y="0px"
	 viewBox="0 0 100.75 100.75" style="enable-background:new 0 0 100.75 100.75;" xml:space="preserve">
<g>
	<path d="M92.292,52.347H79.741V41.523h7.242v3.584c0,0.829,0.672,1.5,1.5,1.5s1.5-0.671,1.5-1.5V34.936c0-0.829-0.672-1.5-1.5-1.5
		s-1.5,0.671-1.5,1.5v3.587h-7.242v-11.21c0-0.095-0.011-0.188-0.028-0.278c-0.002-0.008-0.001-0.016-0.003-0.025
		c-0.026-0.125-0.072-0.242-0.126-0.353c-0.017-0.035-0.036-0.069-0.056-0.103c-0.059-0.099-0.125-0.192-0.204-0.275
		c-0.01-0.01-0.015-0.023-0.025-0.033L59.636,6.647c-0.001-0.001-0.001-0.001-0.002-0.002l-0.001-0.001
		c-0.001-0.001-0.001-0.001-0.002-0.001c-0.093-0.093-0.202-0.168-0.317-0.234c-0.027-0.015-0.053-0.03-0.08-0.044
		c-0.115-0.057-0.236-0.103-0.365-0.129c-0.01-0.002-0.021-0.001-0.031-0.003c-0.086-0.015-0.173-0.027-0.264-0.027H21.763
		c-0.829,0-1.5,0.671-1.5,1.5v30.816h-7.238v-3.587c0-0.829-0.671-1.5-1.5-1.5s-1.5,0.671-1.5,1.5v10.171c0,0.829,0.671,1.5,1.5,1.5
		s1.5-0.671,1.5-1.5v-3.584h7.238v10.824H7.708c-0.829,0-1.5,0.672-1.5,1.5v38.447c0,0.828,0.671,1.5,1.5,1.5h84.584
		c0.828,0,1.5-0.672,1.5-1.5V53.847C93.792,53.019,93.12,52.347,92.292,52.347z M60.074,11.32l14.537,14.489H60.074V11.32z
		 M23.263,9.207h33.811v18.102c0,0.829,0.672,1.5,1.5,1.5h18.167v23.538H23.263V9.207z M90.792,90.794H9.208V55.347h81.584V90.794z"
		/>
	<path d="M69.226,67.917h7.688c0.828,0,1.5-0.672,1.5-1.5s-0.672-1.5-1.5-1.5h-7.688c-0.828,0-1.5,0.672-1.5,1.5
		S68.397,67.917,69.226,67.917z"/>
	<path d="M23.096,67.917h7.686c0.829,0,1.5-0.672,1.5-1.5s-0.671-1.5-1.5-1.5h-7.686c-0.829,0-1.5,0.672-1.5,1.5
		S22.268,67.917,23.096,67.917z"/>
	<path d="M38.472,67.917h7.694c0.829,0,1.5-0.672,1.5-1.5s-0.671-1.5-1.5-1.5h-7.694c-0.829,0-1.5,0.672-1.5,1.5
		S37.644,67.917,38.472,67.917z"/>
	<path d="M53.842,67.917h7.699c0.828,0,1.5-0.672,1.5-1.5s-0.672-1.5-1.5-1.5h-7.699c-0.828,0-1.5,0.672-1.5,1.5
		S53.014,67.917,53.842,67.917z"/>
	<path d="M38.472,79.148h-7.69c-0.829,0-1.5,0.672-1.5,1.5s0.671,1.5,1.5,1.5h7.69c0.829,0,1.5-0.672,1.5-1.5
		S39.301,79.148,38.472,79.148z"/>
	<path d="M53.846,79.148h-7.688c-0.829,0-1.5,0.672-1.5,1.5s0.671,1.5,1.5,1.5h7.688c0.828,0,1.5-0.672,1.5-1.5
		S54.674,79.148,53.846,79.148z"/>
	<path d="M69.226,79.148h-7.692c-0.828,0-1.5,0.672-1.5,1.5s0.672,1.5,1.5,1.5h7.692c0.828,0,1.5-0.672,1.5-1.5
		S70.054,79.148,69.226,79.148z"/>
</g>
</svg>
