<?xml version="1.0" encoding="iso-8859-1"?>
<!-- Generator: Adobe Illustrator 22.0.1, SVG Export Plug-In . SVG Version: 6.00 Build 0)  -->
<svg version="1.1" id="Layer_1" xmlns="http://www.w3.org/2000/svg" xmlns:xlink="http://www.w3.org/1999/xlink" x="0px" y="0px"
	 viewBox="0 0 100.25 100.25" style="enable-background:new 0 0 100.25 100.25;" xml:space="preserve">
<g>
	<path d="M24.107,56.974l5.946-5.86c0.405-0.399,0.549-0.994,0.373-1.535c-0.177-0.541-0.645-0.935-1.208-1.018l-8.199-1.204
		l-3.671-7.515C17.096,39.327,16.574,39,16,39h0c-0.573,0-1.096,0.326-1.347,0.841l-3.678,7.516l-8.193,1.204
		c-0.562,0.083-1.03,0.477-1.207,1.017c-0.177,0.541-0.033,1.135,0.372,1.534l5.939,5.861L6.485,65.25
		c-0.095,0.563,0.138,1.132,0.602,1.467C7.347,66.904,7.655,67,7.964,67c0.241,0,0.483-0.058,0.704-0.176L16,62.928l7.328,3.896
		c0.504,0.27,1.119,0.227,1.582-0.107c0.464-0.335,0.697-0.904,0.602-1.468L24.107,56.974z M21.019,56.705l1.024,6.038l-5.339-2.839
		c-0.44-0.234-0.968-0.234-1.408,0l-5.344,2.841l1.022-6.041c0.082-0.482-0.077-0.974-0.425-1.317l-4.353-4.295l5.997-0.882
		c0.489-0.072,0.912-0.38,1.129-0.825l2.677-5.47l2.671,5.469c0.217,0.445,0.64,0.754,1.13,0.826l6.001,0.882l-4.357,4.294
		C21.096,55.729,20.938,56.222,21.019,56.705z"/>
	<path d="M29.757,57.022c-0.815-0.148-1.593,0.404-1.735,1.221s0.405,1.593,1.221,1.734c0.059,0.011,5.98,1.08,12.374,5.738
		c8.612,6.275,13.792,15.688,15.396,27.979C57.111,94.45,57.756,95,58.498,95c0.064,0,0.13-0.004,0.196-0.013
		c0.821-0.107,1.4-0.86,1.293-1.682C55.892,61.918,30.018,57.067,29.757,57.022z"/>
	<path d="M61.853,71.766c-13.326-9.204-8.49-34.219-8.439-34.47c0.163-0.812-0.363-1.603-1.176-1.766
		c-0.812-0.163-1.603,0.363-1.766,1.174c-0.055,0.274-1.347,6.811-0.865,14.681c0.651,10.635,4.296,18.536,10.541,22.85
		c0.261,0.18,0.558,0.266,0.852,0.266c0.476,0,0.944-0.227,1.235-0.647C62.705,73.171,62.534,72.236,61.853,71.766z"/>
	<path d="M47.692,31.95l6.076-0.787l4.097,4.364C58.153,35.833,58.551,36,58.959,36c0.14,0,0.28-0.02,0.419-0.06
		c0.541-0.157,0.949-0.605,1.055-1.16l1.095-5.747l5.567-2.405c0.532-0.229,0.884-0.745,0.904-1.324
		c0.021-0.579-0.294-1.118-0.808-1.384l-5.359-2.784l-0.647-5.804c-0.063-0.561-0.436-1.04-0.964-1.238
		c-0.532-0.2-1.125-0.083-1.541,0.298l-4.433,4.062l-6.002-1.214c-0.564-0.113-1.139,0.103-1.488,0.558s-0.408,1.068-0.152,1.582
		l2.616,5.252l-3.009,5.062c-0.293,0.493-0.28,1.111,0.036,1.59C46.562,31.766,47.121,32.022,47.692,31.95z M52.271,24.028
		l-1.612-3.237l3.743,0.757c0.472,0.097,0.957-0.04,1.311-0.364l2.818-2.583l0.408,3.665c0.056,0.497,0.355,0.934,0.8,1.165
		l3.268,1.697l-3.397,1.468c-0.457,0.197-0.786,0.608-0.879,1.096l-0.692,3.635l-2.606-2.776c-0.285-0.304-0.683-0.473-1.094-0.473
		c-0.063,0-0.128,0.004-0.192,0.012l-3.78,0.489l1.852-3.115C52.478,25.025,52.498,24.485,52.271,24.028z"/>
	<path d="M97.848,37.265c-0.25-0.513-0.77-0.839-1.34-0.842l-4.499-0.023l-2.524-3.739c-0.32-0.474-0.884-0.727-1.448-0.646
		c-0.567,0.078-1.04,0.472-1.219,1.015l-1.42,4.297l-4.321,1.272c-0.546,0.161-0.954,0.617-1.054,1.178
		c-0.099,0.561,0.129,1.13,0.587,1.468l3.632,2.679l-0.141,4.531c-0.018,0.571,0.29,1.103,0.795,1.371
		C85.116,49.942,85.358,50,85.6,50c0.309,0,0.617-0.096,0.877-0.283l3.65-2.632l4.233,1.526c0.536,0.192,1.138,0.066,1.549-0.331
		c0.411-0.396,0.562-0.991,0.39-1.535l-1.374-4.323l2.763-3.583C98.036,38.387,98.099,37.777,97.848,37.265z M91.827,42.583
		l0.691,2.175L90.4,43.994c-0.465-0.167-0.984-0.095-1.386,0.194l-1.821,1.313l0.07-2.272c0.016-0.492-0.212-0.961-0.608-1.253
		l-1.834-1.353l2.178-0.641c0.472-0.139,0.846-0.501,1-0.968l0.708-2.143l1.259,1.864c0.277,0.411,0.739,0.658,1.235,0.661
		l2.26,0.012l-1.392,1.805C91.769,41.602,91.679,42.114,91.827,42.583z"/>
	<path d="M79.422,44.509c-0.301,0.016-7.419,0.445-12.225,5.811c-3.084,3.444-4.48,8.079-4.149,13.774
		c0.046,0.798,0.707,1.413,1.496,1.413c0.029,0,0.059-0.001,0.088-0.003c0.827-0.048,1.459-0.757,1.41-1.584
		c-0.281-4.856,0.853-8.752,3.371-11.577c3.939-4.42,10.062-4.832,10.168-4.838c0.825-0.044,1.46-0.75,1.417-1.576
		C80.955,45.101,80.232,44.463,79.422,44.509z"/>
</g>
</svg>
