<?xml version="1.0" encoding="iso-8859-1"?>
<!-- Generator: Adobe Illustrator 21.1.0, SVG Export Plug-In . SVG Version: 6.00 Build 0)  -->
<svg version="1.1" id="Layer_1" xmlns="http://www.w3.org/2000/svg" xmlns:xlink="http://www.w3.org/1999/xlink" x="0px" y="0px"
	 viewBox="0 0 100 100" style="enable-background:new 0 0 100 100;" xml:space="preserve">
<path d="M80.597,56.212c-0.059-1.138-0.144-2.327-0.269-3.568c-0.751-7.432-3.041-17.866-9.693-25.375
	c-5.801-6.547-13.909-9.866-24.103-9.866c-4.993,0-9.598,1.06-13.583,2.572c-0.167,0.033-0.321,0.098-0.464,0.182
	c-7.672,3.015-12.948,7.654-14.084,9.444c-8.621,7.304-13.52,17.821-13.52,29.217c0,0.126,0.016,0.252,0.047,0.374
	c0.083,0.32,2.123,7.902,10.929,11.883c12.291,5.556,27.919,11.517,44.603,11.517c3.312,0,6.664-0.234,10.04-0.754
	c21.819-3.354,24.617-8.399,24.617-12.42C95.118,68.525,95.118,65.818,80.597,56.212z M68.382,29.25
	c10.383,11.709,9.485,31.693,9.109,36.41l-17.477,4.37c0.192-4.176,0.466-13.986-0.601-22.917
	c-1.293-10.812-4.648-22.97-18.18-26.286c1.69-0.267,3.457-0.424,5.299-0.424C55.825,20.403,63.177,23.379,68.382,29.25z
	 M33.518,22.946c14.005,0.045,20.868,7.395,22.916,24.522c0.995,8.331,0.777,17.701,0.597,22.008l-5.437-3.079
	c0.45-4.675,1.669-23.928-7.559-33.028c-5.833-5.751-11.994-7.475-16.839-7.241C28.981,25.021,31.108,23.901,33.518,22.946z
	 M20.773,31.538c0.106-0.078,0.207-0.158,0.299-0.237c0.296-0.238,0.588-0.478,0.892-0.708c3.426-2.225,12.009-2.931,19.966,4.912
	c7.932,7.822,7.126,25.188,6.712,30.168c-3.924-0.168-15.499-0.948-24.934-4.463c-6.283-2.34-11.169-6.349-14.531-11.906
	C11.089,42.391,15.077,36.218,20.773,31.538z M70.045,78.873c-19.603,3.018-38.598-4.044-52.951-10.532
	c-6.872-3.105-8.887-8.685-9.211-9.732c0.01-1.77,0.163-3.513,0.424-5.227c4.461,5.977,10.139,9.069,14.355,10.639
	c11.048,4.116,24.432,4.628,26.928,4.688l8.077,4.575c0.01,0.006,0.022,0.007,0.032,0.013c0.1,0.054,0.206,0.099,0.318,0.129
	c0.02,0.005,0.04,0.006,0.06,0.01c0.075,0.017,0.15,0.033,0.229,0.039c0.033,0.003,0.066,0.004,0.098,0.004c0,0,0.001,0,0.001,0
	c0,0,0,0,0.001,0c0.001,0,0.002,0,0.002,0c0.115,0,0.226-0.017,0.333-0.042c0.009-0.002,0.019-0.001,0.028-0.003l20.48-5.121
	c0.603-0.15,1.05-0.657,1.125-1.274c0.021-0.171,0.346-2.956,0.328-7.14c7.163,4.877,11.154,8.461,11.415,9.52
	C92.118,73.44,84.691,76.621,70.045,78.873z"/>
</svg>
