<?xml version="1.0" encoding="iso-8859-1"?>
<!-- Generator: Adobe Illustrator 21.0.0, SVG Export Plug-In . SVG Version: 6.00 Build 0)  -->
<svg version="1.1" id="Layer_1" xmlns="http://www.w3.org/2000/svg" xmlns:xlink="http://www.w3.org/1999/xlink" x="0px" y="0px"
	 viewBox="0 0 100.353 100.353" style="enable-background:new 0 0 100.353 100.353;" xml:space="preserve">
<g>
	<path style="fill:#231F20;" d="M82.19,13.118H17.697c-2.017,0-3.657,1.64-3.657,3.656v64.494c0,2.016,1.64,3.656,3.657,3.656h8.898
		v5.833c0,0.82,0.665,1.484,1.484,1.484s1.484-0.664,1.484-1.484v-5.833h41.013v5.833c0,0.82,0.665,1.484,1.484,1.484
		s1.484-0.664,1.484-1.484v-5.833h8.646c2.018,0,3.66-1.641,3.66-3.656V16.774C85.85,14.758,84.208,13.118,82.19,13.118z
		 M75.677,32.346c-0.544-0.613-1.483-0.669-2.096-0.124L47.312,55.547H17.009V24.212h65.873v31.334H51.784l23.768-21.105
		C76.165,33.897,76.221,32.959,75.677,32.346z M17.697,16.087H82.19c0.381,0,0.691,0.309,0.691,0.688v4.469H17.009v-4.469
		C17.009,16.396,17.317,16.087,17.697,16.087z M82.19,81.956H17.697c-0.379,0-0.688-0.309-0.688-0.688V58.516h65.873v22.753
		C82.881,81.648,82.571,81.956,82.19,81.956z"/>
	<path style="fill:#231F20;" d="M28.236,63.131c-3.495,0-6.337,2.845-6.337,6.342c0,3.492,2.843,6.333,6.337,6.333
		c3.497,0,6.341-2.841,6.341-6.333C34.577,65.976,31.732,63.131,28.236,63.131z M28.236,72.837c-1.857,0-3.369-1.509-3.369-3.364
		c0-1.859,1.511-3.373,3.369-3.373c1.859,0,3.373,1.514,3.373,3.373C31.608,71.328,30.095,72.837,28.236,72.837z"/>
	<path style="fill:#231F20;" d="M71.651,63.131c-3.495,0-6.337,2.845-6.337,6.342c0,3.492,2.843,6.333,6.337,6.333
		c3.497,0,6.341-2.841,6.341-6.333C77.992,65.976,75.147,63.131,71.651,63.131z M71.651,72.837c-1.857,0-3.369-1.509-3.369-3.364
		c0-1.859,1.511-3.373,3.369-3.373c1.859,0,3.372,1.514,3.372,3.373C75.023,71.328,73.51,72.837,71.651,72.837z"/>
	<path style="fill:#231F20;" d="M57.515,64.32H42.663c-0.82,0-1.484,0.664-1.484,1.484s0.665,1.484,1.484,1.484h14.852
		c0.82,0,1.484-0.664,1.484-1.484S58.335,64.32,57.515,64.32z"/>
	<path style="fill:#231F20;" d="M57.515,70.985H42.663c-0.82,0-1.484,0.664-1.484,1.484s0.665,1.484,1.484,1.484h14.852
		c0.82,0,1.484-0.664,1.484-1.484S58.335,70.985,57.515,70.985z"/>
</g>
</svg>
