<svg id="Layer_1" data-name="Layer 1" xmlns="http://www.w3.org/2000/svg" viewBox="0 0 101 101"><title>Artboard 2 copy 5</title><path d="M50.22,56.69A14.49,14.49,0,0,0,37.4,64.51a1.5,1.5,0,0,0,2.65,1.4,11.4,11.4,0,0,1,20.14-.32,1.5,1.5,0,0,0,2.61-1.48A14.54,14.54,0,0,0,50.22,56.69Z"/><path d="M50.06,55.13A10.06,10.06,0,1,0,40,45.06,10.08,10.08,0,0,0,50.06,55.13Zm0-17.13A7.06,7.06,0,1,1,43,45.06,7.07,7.07,0,0,1,50.06,38Z"/><path d="M88.5,22H52.12L67.56,6.56a1.5,1.5,0,0,0-2.12-2.12L49.5,20.38,38.56,9.44a1.5,1.5,0,0,0-2.12,2.12L46.88,22H12.5A1.5,1.5,0,0,0,11,23.5v55A1.5,1.5,0,0,0,12.5,80h76A1.5,1.5,0,0,0,90,78.5v-55A1.5,1.5,0,0,0,88.5,22ZM87,77H14V25H87Z"/><path d="M19.5,72h62A1.5,1.5,0,0,0,83,70.5v-40A1.5,1.5,0,0,0,81.5,29h-62A1.5,1.5,0,0,0,18,30.5v40A1.5,1.5,0,0,0,19.5,72ZM21,32H80V69H21Z"/></svg>